<?xml version="1.0" encoding="UTF-8" standalone="no"?>
<!-- Created with Inkscape (http://www.inkscape.org/) -->

<svg
   xmlns:dc="http://purl.org/dc/elements/1.1/"
   xmlns:cc="http://creativecommons.org/ns#"
   xmlns:rdf="http://www.w3.org/1999/02/22-rdf-syntax-ns#"
   xmlns:svg="http://www.w3.org/2000/svg"
   xmlns="http://www.w3.org/2000/svg"
   xmlns:sodipodi="http://sodipodi.sourceforge.net/DTD/sodipodi-0.dtd"
   xmlns:inkscape="http://www.inkscape.org/namespaces/inkscape"
   version="1.1"
   id="svg2"
   xml:space="preserve"
   width="200"
   height="200"
   viewBox="0 0 200 200"
   sodipodi:docname="logo.svg"
   inkscape:version="0.92.5 (2060ec1f9f, 2020-04-08)"><metadata
     id="metadata8"><rdf:RDF><cc:Work
         rdf:about=""><dc:format>image/svg+xml</dc:format><dc:type
           rdf:resource="http://purl.org/dc/dcmitype/StillImage" /><dc:title></dc:title></cc:Work></rdf:RDF></metadata><defs
     id="defs6"><clipPath
       clipPathUnits="userSpaceOnUse"
       id="clipPath116-3"><path
         d="m 2729.19,4035.27 c 0,0 -825.65,21.14 -906.38,-27.91 -80.73,-49.05 -566.75,-730.49 -556.94,-741.37 9.81,-10.89 169.67,-420.58 169.67,-420.58 25.5,172.96 142.64,326.79 318.46,390.79 175.81,63.99 364.43,21.44 495.14,-94.66 l 585.08,51.19 -105.03,842.54"
         id="path114-6"
         inkscape:connector-curvature="0" /></clipPath></defs><sodipodi:namedview
     pagecolor="#ffffff"
     bordercolor="#666666"
     borderopacity="1"
     objecttolerance="10"
     gridtolerance="10"
     guidetolerance="10"
     inkscape:pageopacity="0"
     inkscape:pageshadow="2"
     inkscape:window-width="1294"
     inkscape:window-height="704"
     id="namedview4"
     showgrid="false"
     fit-margin-top="0"
     fit-margin-left="0"
     fit-margin-right="0"
     fit-margin-bottom="0"
     inkscape:zoom="1.1125147"
     inkscape:cx="86.272647"
     inkscape:cy="146.93776"
     inkscape:window-x="72"
     inkscape:window-y="27"
     inkscape:window-maximized="1"
     inkscape:current-layer="g12" /><g
     id="g10"
     inkscape:groupmode="layer"
     inkscape:label="ink_ext_XXXXXX"
     transform="matrix(1.3333333,0,0,-1.3333333,-320.29885,343.2852)"><g
       id="g12"
       transform="scale(0.1)"><path
         d="m 3152.2413,2574.639 c -133.2349,-72.0011 -223.7473,-212.9282 -223.7473,-375 0,-162.0718 90.5124,-302.9989 223.7473,-375 133.2351,72.0011 223.7476,212.9282 223.7476,375 0,162.0718 -90.5125,302.9989 -223.7476,375"
         style="fill:#fffb00;fill-opacity:1;fill-rule:nonzero;stroke:none;stroke-width:0.86623085"
         id="path38"
         inkscape:connector-curvature="0" /><path
         d="m 3022.0036,2563.2481 c -118.6996,-94.0467 -183.3637,-248.5476 -155.2286,-408.1593 28.1439,-159.6117 141.7587,-282.6771 285.4663,-330.4498 118.7084,94.038 183.3725,248.5476 155.2287,408.1593 -28.1438,159.6031 -141.75,282.6772 -285.4664,330.4498"
         style="fill:#ffed00;fill-opacity:1;fill-rule:nonzero;stroke:none;stroke-width:0.86623085"
         id="path40"
         inkscape:connector-curvature="0" /><path
         d="m 2895.7245,2529.4045 c -100.5694,-113.2251 -137.4189,-276.6049 -81.9888,-428.9056 55.4301,-152.3007 188.6824,-253.771 338.5056,-275.8599 100.5694,113.2251 137.4276,276.6135 81.9975,428.9056 -55.4301,152.3007 -188.691,253.771 -338.5143,275.8599"
         style="fill:#ffdf00;fill-opacity:1;fill-rule:nonzero;stroke:none;stroke-width:0.86623085"
         id="path42"
         inkscape:connector-curvature="0" /><path
         d="m 2777.2414,2474.1563 c -79.3814,-128.9645 -87.2987,-296.2683 -6.2628,-436.6324 81.0272,-140.3554 229.8803,-217.1467 381.2627,-212.8849 79.3815,128.9731 87.3075,296.277 6.2716,436.6324 -81.036,140.3553 -229.889,217.1467 -381.2715,212.8849"
         style="fill:#ffd000;fill-opacity:1;fill-rule:nonzero;stroke:none;stroke-width:0.86623085"
         id="path44"
         inkscape:connector-curvature="0" /><path
         d="m 2670.1493,2399.1753 c -55.7766,-140.7972 -34.528,-306.9402 69.6536,-431.0884 104.1729,-124.1569 264.0965,-173.9305 412.4384,-143.4479 55.7854,140.7972 34.5281,306.9316 -69.6449,431.0885 -104.1815,124.1482 -264.1051,173.9305 -412.4471,143.4478"
         style="fill:#ffc000;fill-opacity:1;fill-rule:nonzero;stroke:none;stroke-width:0.86623085"
         id="path46"
         inkscape:connector-curvature="0" /><path
         d="m 2577.7138,2306.7312 c -30.4913,-148.3421 19.291,-308.2656 143.4392,-412.4472 124.1568,-104.1729 290.2913,-125.4302 431.0883,-69.645 30.4827,148.3421 -19.2908,308.2656 -143.4477,412.4472 -124.1482,104.1729 -290.2913,125.4216 -431.0798,69.645"
         style="fill:#ffb200;fill-opacity:1;fill-rule:nonzero;stroke:none;stroke-width:0.86623085"
         id="path48"
         inkscape:connector-curvature="0" /><path
         d="m 2502.7242,2199.639 c -4.2619,-151.3825 72.5295,-300.2356 212.8849,-381.2715 140.3554,-81.0359 307.6679,-73.1099 436.6322,6.2715 4.2619,151.3825 -72.5295,300.2356 -212.8848,381.2715 -140.3554,81.0273 -307.6592,73.1099 -436.6323,-6.2715"
         style="fill:#ffa000;fill-opacity:1;fill-rule:nonzero;stroke:none;stroke-width:0.86623085"
         id="path50"
         inkscape:connector-curvature="0" /><path
         d="m 2447.476,2081.156 c 22.0889,-149.8233 123.5591,-283.0843 275.8599,-338.5144 152.292,-55.4301 315.6805,-18.572 428.9054,81.9974 -22.0889,149.8233 -123.5591,283.0756 -275.8598,338.5057 -152.292,55.4301 -315.6805,18.5807 -428.9055,-81.9887"
         style="fill:#ff9300;fill-opacity:1;fill-rule:nonzero;stroke:none;stroke-width:0.86623085"
         id="path52"
         inkscape:connector-curvature="0" /><path
         d="m 2413.641,1954.8768 c 47.764,-143.7163 170.8381,-257.3225 330.4498,-285.4664 159.603,-28.1438 314.1126,36.5203 408.1505,155.2286 -47.7725,143.7077 -170.8379,257.3226 -330.4496,285.4664 -159.6117,28.1352 -314.1127,-36.5203 -408.1507,-155.2286"
         style="fill:#ff8700;fill-opacity:1;fill-rule:nonzero;stroke:none;stroke-width:0.86623085"
         id="path54"
         inkscape:connector-curvature="0" /><path
         d="m 2402.2414,1824.639 c 72.0011,-133.235 212.9282,-223.7474 375,-223.7474 162.0718,0 302.9989,90.5124 374.9999,223.7474 -72.001,133.235 -212.9281,223.7475 -374.9999,223.7475 -162.0718,0 -302.9989,-90.5125 -375,-223.7475"
         style="fill:#ff7900;fill-opacity:1;fill-rule:nonzero;stroke:none;stroke-width:0.86623085"
         id="path56"
         inkscape:connector-curvature="0" /><path
         d="m 2413.641,1694.4012 c 94.038,-118.7083 248.5476,-183.3724 408.1507,-155.2286 159.6117,28.1439 282.6771,141.7587 330.4496,285.4664 -94.0379,118.7083 -248.5475,183.3724 -408.1505,155.2286 -159.6117,-28.1438 -282.6858,-141.75 -330.4498,-285.4664"
         style="fill:#ff5700;fill-opacity:1;fill-rule:nonzero;stroke:none;stroke-width:0.86623085"
         id="path58"
         inkscape:connector-curvature="0" /><path
         d="m 2447.476,1568.1221 c 113.225,-100.5694 276.6135,-137.4276 428.9055,-81.9888 152.3007,55.4301 253.7709,188.6824 275.8598,338.5057 -113.2249,100.5694 -276.6134,137.4275 -428.9054,81.9888 -152.3008,-55.4301 -253.771,-188.6824 -275.8599,-338.5057"
         style="fill:#ff3b00;fill-opacity:1;fill-rule:nonzero;stroke:none;stroke-width:0.86623085"
         id="path60"
         inkscape:connector-curvature="0" /><path
         d="m 2502.7242,1449.639 c 128.9731,-79.3814 296.2769,-87.3074 436.6323,-6.2715 140.3553,81.0359 217.1467,229.889 212.8848,381.2715 -128.9643,79.3814 -296.2768,87.3074 -436.6322,6.2715 -140.3554,-81.0359 -217.1468,-229.889 -212.8849,-381.2715"
         style="fill:#ff2600;fill-opacity:1;fill-rule:nonzero;stroke:none;stroke-width:0.86623085"
         id="path62"
         inkscape:connector-curvature="0" /><path
         d="m 2577.7138,1342.5469 c 140.7885,-55.7766 306.9316,-34.528 431.0798,69.6449 124.1569,104.1816 173.9304,264.1052 143.4477,412.4472 -140.797,55.7853 -306.9315,34.528 -431.0883,-69.6449 -124.1482,-104.1816 -173.9305,-264.1052 -143.4392,-412.4472"
         style="fill:#f22540;fill-opacity:1;fill-rule:nonzero;stroke:none;stroke-width:0.86623085"
         id="path64"
         inkscape:connector-curvature="0" /><path
         d="m 2670.1493,1250.1114 c 148.342,-30.4913 308.2656,19.291 412.4471,143.4392 104.173,124.1568 125.4303,290.2913 69.6449,431.0884 -148.3419,30.4827 -308.2655,-19.2909 -412.4384,-143.4478 -104.1816,-124.1482 -125.4302,-290.2913 -69.6536,-431.0798"
         style="fill:#e5276f;fill-opacity:1;fill-rule:nonzero;stroke:none;stroke-width:0.86623085"
         id="path66"
         inkscape:connector-curvature="0" /><path
         d="m 2777.2414,1175.1218 c 151.3825,-4.2619 300.2355,72.5295 381.2715,212.8849 81.0359,140.3554 73.1099,307.6679 -6.2716,436.6323 -151.3824,4.2619 -300.2355,-72.5295 -381.2627,-212.8849 -81.0359,-140.3554 -73.1186,-307.6679 6.2628,-436.6323"
         style="fill:#d2278d;fill-opacity:1;fill-rule:nonzero;stroke:none;stroke-width:0.86623085"
         id="path68"
         inkscape:connector-curvature="0" /><path
         d="m 2895.7245,1119.8736 c 149.8233,22.0889 283.0842,123.5591 338.5143,275.8512 55.4301,152.3007 18.5719,315.6892 -81.9975,428.9142 -149.8232,-22.0889 -283.0755,-123.5678 -338.5056,-275.8599 -55.4301,-152.292 -18.5806,-315.6805 81.9888,-428.9055"
         style="fill:#c82db3;fill-opacity:1;fill-rule:nonzero;stroke:none;stroke-width:0.86623085"
         id="path70"
         inkscape:connector-curvature="0" /><path
         d="m 3022.0036,1086.0386 c 143.7164,47.764 257.3226,170.8381 285.4664,330.4498 28.1438,159.603 -36.5203,314.1126 -155.2287,408.1506 -143.7076,-47.7726 -257.3224,-170.838 -285.4663,-330.4497 -28.1351,-159.6117 36.529,-314.1127 155.2286,-408.1507"
         style="fill:#a92bbc;fill-opacity:1;fill-rule:nonzero;stroke:none;stroke-width:0.86623085"
         id="path72"
         inkscape:connector-curvature="0" /><path
         d="m 3152.2413,1074.639 c 133.2351,72.0011 223.7476,212.9282 223.7476,375 0,162.0718 -90.5125,302.9989 -223.7476,375 -133.2349,-72.0011 -223.7473,-212.9282 -223.7473,-375 0,-162.0718 90.5124,-302.9989 223.7473,-375"
         style="fill:#7524af;fill-opacity:1;fill-rule:nonzero;stroke:none;stroke-width:0.86623085"
         id="path74"
         inkscape:connector-curvature="0" /><path
         d="m 3282.4792,1086.0386 c 118.7083,94.038 183.3724,248.539 155.2286,408.1507 -28.1438,159.6117 -141.75,282.6771 -285.4665,330.4497 -118.7082,-94.038 -183.3723,-248.5476 -155.2285,-408.1506 28.1439,-159.6117 141.7587,-282.6858 285.4664,-330.4498"
         style="fill:#4d22b3;fill-opacity:1;fill-rule:nonzero;stroke:none;stroke-width:0.86623085"
         id="path76"
         inkscape:connector-curvature="0" /><path
         d="m 3408.7584,1119.8736 c 100.5694,113.225 137.4275,276.6135 81.9887,428.9055 -55.4301,152.2921 -188.6824,253.771 -338.5058,275.8599 -100.5693,-113.225 -137.4274,-276.6135 -81.9887,-428.9142 55.4301,-152.2921 188.6825,-253.7623 338.5058,-275.8512"
         style="fill:#1b1ca1;fill-opacity:1;fill-rule:nonzero;stroke:none;stroke-width:0.86623085"
         id="path78"
         inkscape:connector-curvature="0" /><path
         d="m 3527.2414,1175.1218 c 79.3814,128.9644 87.3074,296.2769 6.2715,436.6323 -81.0359,140.3554 -229.889,217.1468 -381.2716,212.8849 -79.3813,-128.9644 -87.2986,-296.2769 -6.2714,-436.6323 81.0358,-140.3554 229.889,-217.1468 381.2715,-212.8849"
         style="fill:#0229ba;fill-opacity:1;fill-rule:nonzero;stroke:none;stroke-width:0.86623085"
         id="path80"
         inkscape:connector-curvature="0" /><path
         d="m 3634.3336,1250.1114 c 55.7852,140.7885 34.5279,306.9316 -69.645,431.0798 -104.1816,124.1569 -264.1051,173.9305 -412.4473,143.4478 -55.7765,-140.7971 -34.5278,-306.9316 69.645,-431.0884 104.1817,-124.1482 264.1052,-173.9305 412.4473,-143.4392"
         style="fill:#0040ba;fill-opacity:1;fill-rule:nonzero;stroke:none;stroke-width:0.86623085"
         id="path82"
         inkscape:connector-curvature="0" /><path
         d="m 3726.7777,1342.5469 c 30.4827,148.342 -19.291,308.2656 -143.4478,412.4472 -124.1569,104.1729 -290.2913,125.4302 -431.0886,69.6449 -30.4826,-148.342 19.2911,-308.2656 143.448,-412.4472 124.1482,-104.1729 290.2912,-125.4215 431.0884,-69.6449"
         style="fill:#005dbc;fill-opacity:1;fill-rule:nonzero;stroke:none;stroke-width:0.86623085"
         id="path84"
         inkscape:connector-curvature="0" /><path
         d="m 3801.7587,1449.639 c 4.2618,151.3825 -72.5296,300.2356 -212.8849,381.2715 -140.3554,81.0359 -307.6593,73.1099 -436.6325,-6.2715 -4.2618,-151.3825 72.5295,-300.2356 212.885,-381.2715 140.3641,-81.0359 307.6679,-73.1099 436.6324,6.2715"
         style="fill:#0074bf;fill-opacity:1;fill-rule:nonzero;stroke:none;stroke-width:0.86623085"
         id="path86"
         inkscape:connector-curvature="0" /><path
         d="m 3857.0155,1568.1221 c -22.0975,149.8233 -123.5678,283.0756 -275.8599,338.5143 -152.3007,55.4301 -315.6892,18.572 -428.9143,-81.9974 22.0889,-149.8233 123.5593,-283.0756 275.86,-338.5057 152.3007,-55.4388 315.6805,-18.5806 428.9142,81.9888"
         style="fill:#0087c3;fill-opacity:1;fill-rule:nonzero;stroke:none;stroke-width:0.86623085"
         id="path88"
         inkscape:connector-curvature="0" /><path
         d="m 3890.8505,1694.4012 c -47.7726,143.7164 -170.8467,257.3226 -330.4498,285.4664 -159.6117,28.1438 -314.1213,-36.5203 -408.1594,-155.2286 47.7728,-143.7077 170.8468,-257.3225 330.4499,-285.4664 159.6117,-28.1438 314.1126,36.5203 408.1593,155.2286"
         style="fill:#009bcc;fill-opacity:1;fill-rule:nonzero;stroke:none;stroke-width:0.86623085"
         id="path90"
         inkscape:connector-curvature="0" /><path
         d="m 3902.2414,1824.639 c -72.0011,133.235 -212.9282,223.7475 -375,223.7475 -162.0718,0 -302.9989,-90.5125 -375.0001,-223.7475 72.0012,-133.235 212.9283,-223.7474 375.0001,-223.7474 162.0718,0 302.9989,90.5124 375,223.7474"
         style="fill:#00afcf;fill-opacity:1;fill-rule:nonzero;stroke:none;stroke-width:0.86623085"
         id="path92"
         inkscape:connector-curvature="0" /><path
         d="m 3890.8505,1954.8768 c -94.0467,118.7083 -248.5476,183.3638 -408.1593,155.2286 -159.6031,-28.1438 -282.6771,-141.7587 -330.4499,-285.4664 94.0381,-118.7083 248.5477,-183.3724 408.1594,-155.2286 159.6031,28.1439 282.6772,141.7501 330.4498,285.4664"
         style="fill:#00c6a0;fill-opacity:1;fill-rule:nonzero;stroke:none;stroke-width:0.86623085"
         id="path94"
         inkscape:connector-curvature="0" /><path
         d="m 3857.0155,2081.156 c -113.2337,100.5694 -276.6135,137.4188 -428.9142,81.9887 -152.3007,-55.4301 -253.7711,-188.6824 -275.86,-338.5057 113.2251,-100.5694 276.6136,-137.4275 428.9143,-81.9974 152.2921,55.4301 253.7624,188.6911 275.8599,338.5144"
         style="fill:#00bd4f;fill-opacity:1;fill-rule:nonzero;stroke:none;stroke-width:0.86623085"
         id="path96"
         inkscape:connector-curvature="0" /><path
         d="m 3801.7587,2199.639 c -128.9645,79.3814 -296.2683,87.2988 -436.6324,6.2715 -140.3555,-81.0359 -217.1468,-229.889 -212.885,-381.2715 128.9732,-79.3814 296.2771,-87.2987 436.6325,-6.2715 140.3553,81.0359 217.1467,229.889 212.8849,381.2715"
         style="fill:#00b600;fill-opacity:1;fill-rule:nonzero;stroke:none;stroke-width:0.86623085"
         id="path98"
         inkscape:connector-curvature="0" /><path
         d="m 3726.7777,2306.7312 c -140.7972,55.7766 -306.9402,34.5279 -431.0884,-69.645 -124.1569,-104.1816 -173.9306,-264.1051 -143.448,-412.4472 140.7973,-55.7852 306.9317,-34.5279 431.0886,69.645 124.1568,104.1816 173.9305,264.1051 143.4478,412.4472"
         style="fill:#3bbe00;fill-opacity:1;fill-rule:nonzero;stroke:none;stroke-width:0.86623085"
         id="path100"
         inkscape:connector-curvature="0" /><path
         d="m 3634.3336,2399.1753 c -148.3421,30.4827 -308.2656,-19.2996 -412.4473,-143.4478 -104.1728,-124.1569 -125.4215,-290.2913 -69.645,-431.0885 148.3422,-30.4826 308.2657,19.291 412.4473,143.4479 104.1729,124.1482 125.4302,290.2912 69.645,431.0884"
         style="fill:#70c700;fill-opacity:1;fill-rule:nonzero;stroke:none;stroke-width:0.86623085"
         id="path102"
         inkscape:connector-curvature="0" /><path
         d="m 3527.2414,2474.1563 c -151.3825,4.2618 -300.2357,-72.5296 -381.2715,-212.8849 -81.0272,-140.3554 -73.1099,-307.6593 6.2714,-436.6324 151.3826,-4.2618 300.2357,72.5295 381.2716,212.8849 81.0359,140.3641 73.1099,307.6679 -6.2715,436.6324"
         style="fill:#9cce00;fill-opacity:1;fill-rule:nonzero;stroke:none;stroke-width:0.86623085"
         id="path104"
         inkscape:connector-curvature="0" /><path
         d="m 3408.7584,2529.4045 c -149.8233,-22.0889 -283.0757,-123.5592 -338.5058,-275.8599 -55.4387,-152.2921 -18.5806,-315.6805 81.9887,-428.9056 149.8234,22.0889 283.0757,123.5592 338.5058,275.8599 55.4388,152.3007 18.5807,315.6805 -81.9887,428.9056"
         style="fill:#badf00;fill-opacity:1;fill-rule:nonzero;stroke:none;stroke-width:0.86623085"
         id="path106"
         inkscape:connector-curvature="0" /><path
         d="m 3282.4792,2563.2481 c -143.7077,-47.7726 -257.3225,-170.8467 -285.4664,-330.4498 -28.1438,-159.6117 36.5203,-314.1213 155.2285,-408.1593 143.7165,47.7727 257.3227,170.8381 285.4665,330.4498 28.1438,159.6117 -36.5203,314.1126 -155.2286,408.1593"
         style="fill:#dced00;fill-opacity:1;fill-rule:nonzero;stroke:none;stroke-width:0.86623085"
         id="path108"
         inkscape:connector-curvature="0" /><g
         transform="matrix(0.86623088,0,0,0.86623088,1203.9669,-896.65993)"
         id="g110"><g
           id="g112"
           clip-path="url(#clipPath116-3)"><path
             d="m 2249.14,4007.36 c -153.81,-83.12 -258.3,-245.81 -258.3,-432.91 0,-187.1 104.49,-349.79 258.3,-432.91 153.81,83.12 258.3,245.81 258.3,432.91 0,187.1 -104.49,349.79 -258.3,432.91"
             style="fill:#fffb00;fill-opacity:1;fill-rule:nonzero;stroke:none"
             id="path118"
             inkscape:connector-curvature="0" /><path
             d="m 2098.79,3994.21 c -137.03,-108.57 -211.68,-286.93 -179.2,-471.19 32.49,-184.26 163.65,-326.33 329.55,-381.48 137.04,108.56 211.69,286.93 179.2,471.19 -32.49,184.25 -163.64,326.33 -329.55,381.48"
             style="fill:#ffed00;fill-opacity:1;fill-rule:nonzero;stroke:none"
             id="path120"
             inkscape:connector-curvature="0" /><path
             d="m 1953.01,3955.14 c -116.1,-130.71 -158.64,-319.32 -94.65,-495.14 63.99,-175.82 217.82,-292.96 390.78,-318.46 116.1,130.71 158.65,319.33 94.66,495.14 -63.99,175.82 -217.83,292.96 -390.79,318.46"
             style="fill:#ffdf00;fill-opacity:1;fill-rule:nonzero;stroke:none"
             id="path122"
             inkscape:connector-curvature="0" /><path
             d="m 1816.23,3891.36 c -91.64,-148.88 -100.78,-342.02 -7.23,-504.06 93.54,-162.03 265.38,-250.68 440.14,-245.76 91.64,148.89 100.79,342.03 7.24,504.06 -93.55,162.03 -265.39,250.68 -440.15,245.76"
             style="fill:#ffd000;fill-opacity:1;fill-rule:nonzero;stroke:none"
             id="path124"
             inkscape:connector-curvature="0" /><path
             d="m 1692.6,3804.8 c -64.39,-162.54 -39.86,-354.34 80.41,-497.66 120.26,-143.33 304.88,-200.79 476.13,-165.6 64.4,162.54 39.86,354.33 -80.4,497.66 -120.27,143.32 -304.89,200.79 -476.14,165.6"
             style="fill:#ffc000;fill-opacity:1;fill-rule:nonzero;stroke:none"
             id="path126"
             inkscape:connector-curvature="0" /><path
             d="m 1585.89,3698.08 c -35.2,-171.25 22.27,-355.87 165.59,-476.14 143.33,-120.26 335.12,-144.8 497.66,-80.4 35.19,171.25 -22.27,355.87 -165.6,476.14 -143.32,120.26 -335.12,144.79 -497.65,80.4"
             style="fill:#ffb200;fill-opacity:1;fill-rule:nonzero;stroke:none"
             id="path128"
             inkscape:connector-curvature="0" /><path
             d="m 1499.32,3574.45 c -4.92,-174.76 83.73,-346.6 245.76,-440.15 162.03,-93.55 355.18,-84.4 504.06,7.24 4.92,174.76 -83.73,346.6 -245.76,440.15 -162.03,93.54 -355.17,84.4 -504.06,-7.24"
             style="fill:#ffa000;fill-opacity:1;fill-rule:nonzero;stroke:none"
             id="path130"
             inkscape:connector-curvature="0" /><path
             d="m 1435.54,3437.67 c 25.5,-172.96 142.64,-326.8 318.46,-390.79 175.81,-63.99 364.43,-21.44 495.14,94.66 -25.5,172.96 -142.64,326.79 -318.46,390.78 -175.81,63.99 -364.43,21.45 -495.14,-94.65"
             style="fill:#ff9300;fill-opacity:1;fill-rule:nonzero;stroke:none"
             id="path132"
             inkscape:connector-curvature="0" /><path
             d="m 1396.48,3291.89 c 55.14,-165.91 197.22,-297.06 381.48,-329.55 184.25,-32.49 362.62,42.16 471.18,179.2 -55.15,165.9 -197.22,297.06 -381.48,329.55 -184.26,32.48 -362.62,-42.16 -471.18,-179.2"
             style="fill:#ff8700;fill-opacity:1;fill-rule:nonzero;stroke:none"
             id="path134"
             inkscape:connector-curvature="0" /><path
             d="m 1383.32,3141.54 c 83.12,-153.81 245.81,-258.3 432.91,-258.3 187.1,0 349.79,104.49 432.91,258.3 -83.12,153.81 -245.81,258.3 -432.91,258.3 -187.1,0 -349.79,-104.49 -432.91,-258.3"
             style="fill:#ff7900;fill-opacity:1;fill-rule:nonzero;stroke:none"
             id="path136"
             inkscape:connector-curvature="0" /><path
             d="m 1396.48,2991.19 c 108.56,-137.04 286.93,-211.69 471.18,-179.2 184.26,32.49 326.33,163.65 381.48,329.55 -108.56,137.04 -286.93,211.69 -471.18,179.2 -184.26,-32.49 -326.34,-163.64 -381.48,-329.55"
             style="fill:#ff5700;fill-opacity:1;fill-rule:nonzero;stroke:none"
             id="path138"
             inkscape:connector-curvature="0" /></g></g></g></g></svg>